<?xml version="1.0" encoding="UTF-8"?><svg id="Layer_1" xmlns="http://www.w3.org/2000/svg" xmlns:xlink="http://www.w3.org/1999/xlink" viewBox="0 0 221 90.3"><defs><style>.cls-1{fill:none;}.cls-2{fill:url(#linear-gradient-2);}.cls-3{fill:url(#linear-gradient);}.cls-4{clip-path:url(#clippath-3);}.cls-5{clip-path:url(#clippath-4);}.cls-6{clip-path:url(#clippath-7);}.cls-7{clip-path:url(#clippath-6);}.cls-8{clip-path:url(#clippath-5);}.cls-9{fill:#00384a;}</style><clipPath id="clippath-3"><rect class="cls-1" x="-404" y="-408.98" width="841.89" height="595.28"/></clipPath><clipPath id="clippath-4"><rect class="cls-1" x="-404" y="-408.98" width="841.89" height="595.28"/></clipPath><clipPath id="clippath-5"><rect class="cls-1" x="-404" y="-408.98" width="841.89" height="595.28"/></clipPath><clipPath id="clippath-6"><polygon class="cls-1" points="37.48 13.74 51.12 35.78 37.46 35.78 37.48 13.74"/></clipPath><linearGradient id="linear-gradient" x1="-404" y1="185.99" x2="-403" y2="185.99" gradientTransform="translate(4144.72 -8871.06) rotate(-90) scale(22.05 -22.05)" gradientUnits="userSpaceOnUse"><stop offset="0" stop-color="#65c8d0"/><stop offset=".01" stop-color="#65c8d0"/><stop offset=".99" stop-color="#ade399"/><stop offset="1" stop-color="#ade399"/></linearGradient><clipPath id="clippath-7"><polygon class="cls-1" points="51.15 57.66 51.15 79.6 92.43 13.74 78.59 13.74 51.15 57.66"/></clipPath><linearGradient id="linear-gradient-2" x1="-404" y1="185.99" x2="-403" y2="185.99" gradientTransform="translate(12321.58 -26529.57) rotate(-90) scale(65.86 -65.86)" gradientUnits="userSpaceOnUse"><stop offset="0" stop-color="#65c8d0"/><stop offset=".01" stop-color="#65c8d0"/><stop offset=".99" stop-color="#ade399"/><stop offset="1" stop-color="#ade399"/></linearGradient></defs><polygon class="cls-9" points="103.98 68.17 98.58 55.11 101.06 55.11 104.95 64.72 108.85 55.11 111.32 55.11 105.93 68.17 103.98 68.17"/><polygon class="cls-9" points="115.07 68.17 115.07 55.11 123.39 55.11 123.39 57.23 117.41 57.23 117.41 60.34 123.01 60.34 123.01 62.45 117.41 62.45 117.41 66.05 123.52 66.05 123.52 68.17 115.07 68.17"/><polygon class="cls-9" points="127.77 68.17 127.77 55.11 129.83 55.11 136.74 64.18 136.74 55.11 139.01 55.11 139.01 68.17 137.1 68.17 130.04 58.93 130.04 68.17 127.77 68.17"/><polygon class="cls-9" points="146.24 68.17 146.24 57.23 142.7 57.23 142.7 55.11 152.12 55.11 152.12 57.23 148.58 57.23 148.58 68.17 146.24 68.17"/><g class="cls-4"><path class="cls-9" d="M155.7,55.11h2.34v7.81c0,2.25,1.11,3.33,2.96,3.33s2.94-1.09,2.94-3.33v-7.81h2.34v8.06c0,1.67-.49,2.96-1.48,3.86-.99.9-2.25,1.35-3.8,1.35s-2.83-.45-3.82-1.35c-.99-.9-1.48-2.19-1.48-3.86v-8.06Z"/><path class="cls-9" d="M173.29,61.42h2.49c1.27,0,2.15-.88,2.15-2.14s-.84-2.06-1.97-2.06h-2.68v4.2ZM170.95,68.17v-13.06h5.08c1.18,0,2.17.39,3,1.2.83.79,1.24,1.76,1.24,2.94,0,1.7-.96,3.11-2.38,3.71l3.17,5.21h-2.64l-2.79-4.64h-2.32v4.64h-2.34Z"/></g><polygon class="cls-9" points="184.74 68.17 184.74 55.11 193.06 55.11 193.06 57.23 187.08 57.23 187.08 60.34 192.68 60.34 192.68 62.45 187.08 62.45 187.08 66.05 193.19 66.05 193.19 68.17 184.74 68.17"/><g class="cls-5"><path class="cls-9" d="M198.23,64.31c.67,1.33,1.76,1.99,3.28,1.99,1.63,0,2.21-.86,2.21-1.71,0-.58-.21-.97-.75-1.33-.54-.37-.94-.54-1.91-.9-1.2-.45-1.89-.79-2.64-1.39-.75-.62-1.11-1.46-1.11-2.57s.39-1.89,1.16-2.55c.79-.65,1.74-.97,2.89-.97,1.78,0,3.13.71,4.03,2.12l-1.67,1.14c-.51-.77-1.28-1.16-2.32-1.16s-1.78.58-1.78,1.39c0,.54.23.81.54,1.12.21.15.73.38.97.51l.67.26.77.3c1.24.51,2.12,1.05,2.66,1.63.54.58.83,1.37.83,2.34,0,2.3-1.59,3.86-4.57,3.86-2.42,0-4.2-1.12-5.02-2.98l1.76-1.11Z"/></g><polygon class="cls-9" points="103.5 47.35 98.15 34.59 99.71 34.59 104.01 44.95 108.29 34.59 109.85 34.59 104.5 47.35 103.5 47.35"/><rect class="cls-9" x="114.08" y="34.59" width="1.43" height="12.76"/><g class="cls-8"><path class="cls-9" d="M121.36,40.98c0,1.52.49,2.8,1.48,3.81,1.01,1.01,2.25,1.5,3.75,1.5s2.74-.49,3.73-1.5c.99-1.01,1.48-2.29,1.48-3.81s-.49-2.78-1.48-3.79c-.99-1.01-2.23-1.52-3.73-1.52s-2.74.51-3.75,1.52c-.99,1.01-1.48,2.27-1.48,3.79M119.96,40.98c0-1.88.64-3.46,1.92-4.72,1.3-1.26,2.87-1.9,4.72-1.9s3.42.64,4.7,1.9c1.3,1.26,1.94,2.84,1.94,4.72s-.64,3.48-1.94,4.74c-1.28,1.26-2.85,1.88-4.7,1.88s-3.42-.62-4.72-1.88c-1.28-1.26-1.92-2.86-1.92-4.74"/></g><polygon class="cls-9" points="137.62 47.35 137.62 34.59 139.05 34.59 139.05 46.03 145.3 46.03 145.3 47.35 137.62 47.35"/><path class="cls-9" d="M151.88,42.88h5.09l-2.54-6.08-2.54,6.08ZM148.47,47.35l5.4-12.76h1.1l5.4,12.76h-1.54l-1.32-3.15h-6.18l-1.32,3.15h-1.54Z"/><g class="cls-7"><rect class="cls-3" x="37.46" y="13.74" width="13.66" height="22.05"/></g><g class="cls-6"><rect class="cls-2" x="51.15" y="13.74" width="41.28" height="65.86"/></g><polygon class="cls-9" points="64.89 13.74 78.59 13.74 51.15 57.66 51.12 35.79 64.89 13.74"/><polygon class="cls-9" points="9.86 13.74 51.15 79.6 51.15 57.66 23.72 13.74 9.86 13.74"/></svg>
